# xmcd
#
# Track frame offsets:
#	150
#	13217
#	28218
#	42665
#	59392
#	74969
#	88957
#	102534
#	120115
#	135912
#
# Disc length: 2088 seconds
#
# Revision: 1
# Processed by: cddbd v1.5.1PL2 Copyright (c) Steve Scherf et al.
# Submitted via: audiograbber 1.83.01
#
DISCID=9408260a
DTITLE=JUICE NEWTON - Well Kept Secret
DYEAR=1978
DGENRE=Country Rock
TTITLE0=So Many Ways
TTITLE1=Close Enough
TTITLE2=I'll Never Love Again
TTITLE3=Go Easy On Me
TTITLE4=A Love Like Ours (Don't Come Knocking Everyday)
TTITLE5=Hey Baby
TTITLE6=Tell My Baby Goodbye
TTITLE7=No Reason
TTITLE8=It's Not Impossible
TTITLE9=If There Could Be
EXTD=
EXTT0=
EXTT1=
EXTT2=
EXTT3=
EXTT4=
EXTT5=
EXTT6=
EXTT7=
EXTT8=
EXTT9=
PLAYORDER=
